<svg width="20" height="20" viewBox="0 0 20 20" fill="none" xmlns="http://www.w3.org/2000/svg">
<g id="Vector">
<path d="M17.8752 9.24984C18.9106 9.24984 19.75 8.41045 19.75 7.375C19.75 6.33956 18.9105 5.50016 17.8751 5.50016C16.8395 5.50016 16 6.33963 16 7.37516V9.24984H17.8752ZM12.625 9.24984C13.6605 9.24984 14.5 8.41037 14.5 7.37484V2.12516C14.5 1.08963 13.6605 0.250159 12.625 0.250159C11.5895 0.250159 10.75 1.08963 10.75 2.12516V7.37484C10.75 8.41037 11.5895 9.24984 12.625 9.24984Z" fill="#2EB67D"/>
<path d="M2.12484 10.7502C1.08939 10.7502 0.25 11.5896 0.25 12.625C0.25 13.6604 1.08947 14.4998 2.12492 14.4998C3.16045 14.4998 4 13.6604 4 12.6248V10.7502H2.12484ZM7.375 10.7502C6.33947 10.7502 5.5 11.5896 5.5 12.6252V17.8748C5.5 18.9104 6.33947 19.7498 7.375 19.7498C8.41053 19.7498 9.25 18.9104 9.25 17.8748V12.6252C9.25 11.5896 8.41053 10.7502 7.375 10.7502Z" fill="#E01E5A"/>
<path d="M10.7501 17.8752C10.7501 18.9106 11.5895 19.75 12.625 19.75C13.6604 19.75 14.4998 18.9105 14.4998 17.8751C14.4998 16.8395 13.6603 16 12.6248 16H10.7501V17.8752ZM10.7501 12.625C10.7501 13.6605 11.5896 14.5 12.6251 14.5H17.8748C18.9104 14.5 19.7498 13.6605 19.7498 12.625C19.7498 11.5895 18.9104 10.75 17.8748 10.75H12.6251C11.5896 10.75 10.7501 11.5895 10.7501 12.625Z" fill="#ECB22E"/>
<path d="M9.24981 2.12484C9.24982 1.08939 8.41042 0.25 7.37498 0.25C6.33953 0.25 5.50014 1.08947 5.50014 2.12492C5.50014 3.16045 6.3396 4 7.37514 4H9.24981V2.12484ZM9.24981 7.375C9.24982 6.33947 8.41035 5.5 7.37482 5.5L2.12514 5.5C1.0896 5.5 0.250137 6.33947 0.250137 7.375C0.250137 8.41053 1.0896 9.25 2.12514 9.25H7.37482C8.41035 9.25 9.24981 8.41053 9.24981 7.375Z" fill="#36C5F0"/>
</g>
</svg>
