<svg width="110" height="92" viewBox="0 0 110 92" fill="none" xmlns="http://www.w3.org/2000/svg">
<path d="M0.19165 25.9327V9.91733C0.19165 4.45928 4.60834 0.0356445 10.0557 0.0356445H31.2465C33.335 0.0356445 35.3685 0.699096 37.0559 1.93162L46.2829 8.66799H99.9445C105.392 8.66799 109.809 13.0916 109.809 18.5497V25.9327H0.19165Z" fill="#5EACDE"/>
<path d="M99.9443 16.0796H10.0565C4.60869 16.0796 0.192383 20.5038 0.192383 25.9613V82.0827C0.192383 87.5402 4.60869 91.9644 10.0565 91.9644H99.9443C105.392 91.9644 109.808 87.5402 109.808 82.0827V25.9613C109.808 20.5038 105.392 16.0796 99.9443 16.0796Z" fill="#64C5FA"/>
<path d="M64 48.75H62.5V45.75C62.5 41.61 59.14 38.25 55 38.25C50.86 38.25 47.5 41.61 47.5 45.75V48.75H46C44.35 48.75 43 50.1 43 51.75V66.75C43 68.4 44.35 69.75 46 69.75H64C65.65 69.75 67 68.4 67 66.75V51.75C67 50.1 65.65 48.75 64 48.75ZM50.5 45.75C50.5 43.26 52.51 41.25 55 41.25C57.49 41.25 59.5 43.26 59.5 45.75V48.75H50.5V45.75ZM64 66.75H46V51.75H64V66.75ZM55 62.25C56.65 62.25 58 60.9 58 59.25C58 57.6 56.65 56.25 55 56.25C53.35 56.25 52 57.6 52 59.25C52 60.9 53.35 62.25 55 62.25Z" fill="#191C20" fill-opacity="0.3"/>
</svg>
