<svg width="40" height="41" viewBox="0 0 40 41" fill="none" xmlns="http://www.w3.org/2000/svg">
<g clip-path="url(#clip0_3578_344)">
<path d="M34.9998 8.83329V36.8761C34.9998 39.0852 33.209 40.8761 30.9998 40.8761H9C6.79086 40.8761 5 39.0852 5 36.8761V4.8761C5 2.66696 6.79086 0.876099 9 0.876099H26.3367L34.9998 8.83329Z" fill="#00C76A"/>
<g filter="url(#filter0_d_3578_344)">
<path d="M34.9998 8.83329H27.3367C26.7844 8.83329 26.3367 8.38557 26.3367 7.83329V0.876099L34.9998 8.83329Z" fill="#ABEFC6"/>
</g>
<path d="M16.2726 30.1495H14.7172C14.6888 29.9483 14.6308 29.7696 14.5432 29.6133C14.4556 29.4547 14.3432 29.3198 14.2059 29.2085C14.0686 29.0972 13.9099 29.012 13.73 28.9528C13.5525 28.8936 13.3595 28.864 13.1512 28.864C12.7748 28.864 12.4469 28.9575 12.1675 29.1446C11.8882 29.3292 11.6715 29.5991 11.5177 29.9542C11.3638 30.307 11.2868 30.7355 11.2868 31.2397C11.2868 31.7582 11.3638 32.1938 11.5177 32.5466C11.6739 32.8993 11.8917 33.1656 12.1711 33.3456C12.4504 33.5255 12.7736 33.6154 13.1405 33.6154C13.3465 33.6154 13.5371 33.5882 13.7123 33.5338C13.8898 33.4793 14.0473 33.4 14.1846 33.2958C14.3219 33.1893 14.4355 33.0603 14.5255 32.9088C14.6178 32.7573 14.6817 32.5844 14.7172 32.3903L16.2726 32.3974C16.2324 32.7312 16.1318 33.0532 15.9708 33.3633C15.8122 33.6711 15.5979 33.9469 15.328 34.1907C15.0605 34.4322 14.7409 34.624 14.3692 34.766C13.9999 34.9057 13.5821 34.9755 13.1157 34.9755C12.467 34.9755 11.887 34.8288 11.3756 34.5352C10.8666 34.2416 10.4642 33.8167 10.1682 33.2603C9.87467 32.704 9.72789 32.0305 9.72789 31.2397C9.72789 30.4466 9.87704 29.7719 10.1753 29.2156C10.4736 28.6592 10.8785 28.2355 11.3898 27.9443C11.9012 27.6507 12.4765 27.5039 13.1157 27.5039C13.5371 27.5039 13.9277 27.5631 14.2876 27.6815C14.6498 27.7999 14.9706 27.9727 15.2499 28.2C15.5293 28.4249 15.7565 28.7007 15.9317 29.0274C16.1093 29.3541 16.2229 29.7281 16.2726 30.1495ZM21.3206 29.695C21.2922 29.4085 21.1702 29.186 20.9548 29.0274C20.7394 28.8688 20.447 28.7895 20.0777 28.7895C19.8267 28.7895 19.6148 28.825 19.442 28.896C19.2692 28.9646 19.1366 29.0605 19.0443 29.1836C18.9543 29.3067 18.9094 29.4464 18.9094 29.6027C18.9046 29.7329 18.9318 29.8465 18.991 29.9436C19.0526 30.0406 19.1366 30.1247 19.2432 30.1957C19.3497 30.2644 19.4728 30.3247 19.6125 30.3768C19.7522 30.4265 19.9013 30.4691 20.0599 30.5046L20.7133 30.6609C21.0306 30.7319 21.3218 30.8266 21.5869 30.945C21.8521 31.0634 22.0817 31.209 22.2758 31.3818C22.47 31.5546 22.6203 31.7582 22.7268 31.9926C22.8357 32.227 22.8914 32.4957 22.8937 32.7987C22.8914 33.2438 22.7777 33.6296 22.5528 33.9564C22.3303 34.2807 22.0083 34.5328 21.5869 34.7127C21.1679 34.8903 20.6624 34.9791 20.0706 34.9791C19.4835 34.9791 18.9721 34.8891 18.5365 34.7092C18.1032 34.5293 17.7647 34.2629 17.5209 33.9102C17.2794 33.5551 17.1527 33.1159 17.1409 32.5927H18.6288C18.6454 32.8366 18.7152 33.0402 18.8383 33.2035C18.9638 33.3645 19.1307 33.4864 19.339 33.5693C19.5497 33.6498 19.7877 33.69 20.0528 33.69C20.3132 33.69 20.5393 33.6521 20.7311 33.5764C20.9252 33.5006 21.0756 33.3953 21.1821 33.2603C21.2886 33.1254 21.3419 32.9703 21.3419 32.7951C21.3419 32.6318 21.2934 32.4945 21.1963 32.3832C21.1016 32.2719 20.9619 32.1772 20.7773 32.0991C20.595 32.021 20.3712 31.95 20.1061 31.886L19.3142 31.6872C18.701 31.538 18.2169 31.3048 17.8618 30.9876C17.5067 30.6704 17.3303 30.243 17.3327 29.7056C17.3303 29.2653 17.4475 28.8806 17.6842 28.5515C17.9233 28.2225 18.2512 27.9656 18.6679 27.7809C19.0845 27.5963 19.558 27.5039 20.0883 27.5039C20.6281 27.5039 21.0992 27.5963 21.5017 27.7809C21.9065 27.9656 22.2214 28.2225 22.4463 28.5515C22.6712 28.8806 22.7872 29.2618 22.7943 29.695H21.3206ZM25.2419 27.6034L26.9997 33.1289H27.0672L28.8286 27.6034H30.5331L28.026 34.8761H26.0445L23.5338 27.6034H25.2419Z" fill="white"/>
</g>
<defs>
<filter id="filter0_d_3578_344" x="23.3367" y="-0.123901" width="12.6631" height="11.9572" filterUnits="userSpaceOnUse" color-interpolation-filters="sRGB">
<feFlood flood-opacity="0" result="BackgroundImageFix"/>
<feColorMatrix in="SourceAlpha" type="matrix" values="0 0 0 0 0 0 0 0 0 0 0 0 0 0 0 0 0 0 127 0" result="hardAlpha"/>
<feOffset dx="-1" dy="1"/>
<feGaussianBlur stdDeviation="1"/>
<feComposite in2="hardAlpha" operator="out"/>
<feColorMatrix type="matrix" values="0 0 0 0 0 0 0 0 0 0 0 0 0 0 0 0 0 0 0.2 0"/>
<feBlend mode="normal" in2="BackgroundImageFix" result="effect1_dropShadow_3578_344"/>
<feBlend mode="normal" in="SourceGraphic" in2="effect1_dropShadow_3578_344" result="shape"/>
</filter>
<clipPath id="clip0_3578_344">
<rect width="40" height="40" fill="white" transform="translate(0 0.876099)"/>
</clipPath>
</defs>
</svg>
