<svg width="40" height="41" viewBox="0 0 40 41" fill="none" xmlns="http://www.w3.org/2000/svg">
<g clip-path="url(#clip0_3578_365)">
<path d="M34.9998 8.83329V36.8761C34.9998 39.0852 33.209 40.8761 30.9998 40.8761H9C6.79086 40.8761 5 39.0852 5 36.8761V4.8761C5 2.66696 6.79086 0.876099 9 0.876099H26.3367L34.9998 8.83329Z" fill="#2650B1"/>
<g filter="url(#filter0_d_3578_365)">
<path d="M34.9998 8.83329H27.3367C26.7844 8.83329 26.3367 8.38557 26.3367 7.83329V0.876099L34.9998 8.83329Z" fill="#C7D7FE"/>
</g>
<path d="M12.7115 33.8761H10.3912V27.3306H12.7306C13.389 27.3306 13.9558 27.4617 14.4309 27.7238C14.9061 27.9837 15.2715 28.3576 15.5272 28.8456C15.785 29.3335 15.9139 29.9173 15.9139 30.597C15.9139 31.2788 15.785 31.8647 15.5272 32.3548C15.2715 32.8448 14.9039 33.2209 14.4245 33.483C13.9473 33.7451 13.3762 33.8761 12.7115 33.8761ZM11.775 32.6904H12.6539C13.063 32.6904 13.4071 32.6179 13.6863 32.473C13.9675 32.326 14.1784 32.0991 14.3191 31.7923C14.4618 31.4833 14.5332 31.0849 14.5332 30.597C14.5332 30.1133 14.4618 29.7181 14.3191 29.4113C14.1784 29.1044 13.9686 28.8786 13.6895 28.7337C13.4103 28.5888 13.0662 28.5164 12.6571 28.5164H11.775V32.6904ZM22.9539 30.6034C22.9539 31.3171 22.8186 31.9244 22.548 32.4251C22.2796 32.9258 21.9131 33.3083 21.4486 33.5725C20.9862 33.8346 20.4664 33.9656 19.8889 33.9656C19.3073 33.9656 18.7852 33.8335 18.3229 33.5693C17.8605 33.3051 17.4951 32.9226 17.2267 32.4219C16.9582 31.9212 16.824 31.315 16.824 30.6034C16.824 29.8896 16.9582 29.2823 17.2267 28.7816C17.4951 28.2809 17.8605 27.8995 18.3229 27.6375C18.7852 27.3733 19.3073 27.2412 19.8889 27.2412C20.4664 27.2412 20.9862 27.3733 21.4486 27.6375C21.9131 27.8995 22.2796 28.2809 22.548 28.7816C22.8186 29.2823 22.9539 29.8896 22.9539 30.6034ZM21.5509 30.6034C21.5509 30.141 21.4816 29.7511 21.3431 29.4336C21.2068 29.1162 21.0139 28.8754 20.7646 28.7113C20.5154 28.5473 20.2235 28.4652 19.8889 28.4652C19.5544 28.4652 19.2625 28.5473 19.0132 28.7113C18.7639 28.8754 18.57 29.1162 18.4316 29.4336C18.2952 29.7511 18.227 30.141 18.227 30.6034C18.227 31.0657 18.2952 31.4556 18.4316 31.7731C18.57 32.0906 18.7639 32.3314 19.0132 32.4954C19.2625 32.6595 19.5544 32.7415 19.8889 32.7415C20.2235 32.7415 20.5154 32.6595 20.7646 32.4954C21.0139 32.3314 21.2068 32.0906 21.3431 31.7731C21.4816 31.4556 21.5509 31.0657 21.5509 30.6034ZM29.7543 29.6222H28.3544C28.3288 29.4411 28.2766 29.2802 28.1978 29.1396C28.119 28.9968 28.0178 28.8754 27.8942 28.7752C27.7706 28.6751 27.6278 28.5984 27.4659 28.5451C27.3061 28.4919 27.1325 28.4652 26.945 28.4652C26.6062 28.4652 26.3111 28.5494 26.0597 28.7177C25.8082 28.8839 25.6133 29.1268 25.4748 29.4464C25.3363 29.7639 25.267 30.1495 25.267 30.6034C25.267 31.07 25.3363 31.462 25.4748 31.7795C25.6154 32.097 25.8114 32.3367 26.0629 32.4986C26.3143 32.6605 26.6051 32.7415 26.9354 32.7415C27.1207 32.7415 27.2923 32.717 27.4499 32.668C27.6097 32.619 27.7514 32.5476 27.875 32.4539C27.9986 32.358 28.1009 32.2419 28.1818 32.1055C28.2649 31.9691 28.3224 31.8136 28.3544 31.6389L29.7543 31.6453C29.718 31.9457 29.6275 32.2355 29.4826 32.5146C29.3398 32.7916 29.147 33.0398 28.9041 33.2593C28.6634 33.4766 28.3757 33.6492 28.0412 33.777C27.7088 33.9027 27.3327 33.9656 26.913 33.9656C26.3292 33.9656 25.8072 33.8335 25.3469 33.5693C24.8888 33.3051 24.5266 32.9226 24.2603 32.4219C23.9961 31.9212 23.864 31.315 23.864 30.6034C23.864 29.8896 23.9982 29.2823 24.2667 28.7816C24.5352 28.2809 24.8995 27.8995 25.3597 27.6375C25.82 27.3733 26.3377 27.2412 26.913 27.2412C27.2923 27.2412 27.6438 27.2944 27.9677 27.401C28.2937 27.5075 28.5824 27.663 28.8338 27.8676C29.0852 28.07 29.2898 28.3182 29.4474 28.6122C29.6072 28.9063 29.7095 29.2429 29.7543 29.6222Z" fill="white"/>
</g>
<defs>
<filter id="filter0_d_3578_365" x="23.3367" y="-0.123901" width="12.6631" height="11.9572" filterUnits="userSpaceOnUse" color-interpolation-filters="sRGB">
<feFlood flood-opacity="0" result="BackgroundImageFix"/>
<feColorMatrix in="SourceAlpha" type="matrix" values="0 0 0 0 0 0 0 0 0 0 0 0 0 0 0 0 0 0 127 0" result="hardAlpha"/>
<feOffset dx="-1" dy="1"/>
<feGaussianBlur stdDeviation="1"/>
<feComposite in2="hardAlpha" operator="out"/>
<feColorMatrix type="matrix" values="0 0 0 0 0 0 0 0 0 0 0 0 0 0 0 0 0 0 0.2 0"/>
<feBlend mode="normal" in2="BackgroundImageFix" result="effect1_dropShadow_3578_365"/>
<feBlend mode="normal" in="SourceGraphic" in2="effect1_dropShadow_3578_365" result="shape"/>
</filter>
<clipPath id="clip0_3578_365">
<rect width="40" height="40" fill="white" transform="translate(0 0.876099)"/>
</clipPath>
</defs>
</svg>
