<svg width="40" height="41" viewBox="0 0 40 41" fill="none" xmlns="http://www.w3.org/2000/svg">
<g clip-path="url(#clip0_3578_347)">
<path d="M34.9998 8.83329V36.8761C34.9998 39.0852 33.209 40.8761 30.9998 40.8761H9C6.79086 40.8761 5 39.0852 5 36.8761V4.8761C5 2.66696 6.79086 0.876099 9 0.876099H26.3367L34.9998 8.83329Z" fill="#2650B1"/>
<g filter="url(#filter0_d_3578_347)">
<path d="M34.9998 8.83329H27.3367C26.7844 8.83329 26.3367 8.38557 26.3367 7.83329V0.876099L34.9998 8.83329Z" fill="#C7D7FE"/>
</g>
<path d="M9.72399 33.8761H7.50595V27.3306H9.76873C10.4186 27.3306 10.9768 27.4617 11.4434 27.7238C11.9122 27.9837 12.2723 28.3576 12.5237 28.8456C12.7751 29.3335 12.9008 29.9173 12.9008 30.597C12.9008 31.2788 12.7741 31.8647 12.5205 32.3548C12.2691 32.8448 11.9058 33.2209 11.4307 33.483C10.9577 33.7451 10.3888 33.8761 9.72399 33.8761ZM8.69167 32.8502H9.66646C10.1224 32.8502 10.5028 32.7671 10.8074 32.6009C11.1121 32.4326 11.3412 32.1822 11.4946 31.8498C11.648 31.5153 11.7247 31.0977 11.7247 30.597C11.7247 30.0963 11.648 29.6808 11.4946 29.3505C11.3412 29.0181 11.1143 28.7699 10.8138 28.6059C10.5155 28.4397 10.1448 28.3566 9.70162 28.3566H8.69167V32.8502ZM19.8762 30.6034C19.8762 31.3086 19.7441 31.9127 19.4798 32.4155C19.2178 32.9162 18.8598 33.2997 18.406 33.5661C17.9543 33.8324 17.4419 33.9656 16.8687 33.9656C16.2955 33.9656 15.782 33.8324 15.3282 33.5661C14.8765 33.2976 14.5186 32.913 14.2544 32.4123C13.9923 31.9095 13.8612 31.3065 13.8612 30.6034C13.8612 29.8981 13.9923 29.2951 14.2544 28.7944C14.5186 28.2916 14.8765 27.907 15.3282 27.6407C15.782 27.3743 16.2955 27.2412 16.8687 27.2412C17.4419 27.2412 17.9543 27.3743 18.406 27.6407C18.8598 27.907 19.2178 28.2916 19.4798 28.7944C19.7441 29.2951 19.8762 29.8981 19.8762 30.6034ZM18.684 30.6034C18.684 30.1069 18.6063 29.6882 18.4507 29.3473C18.2973 29.0043 18.0843 28.7454 17.8115 28.5707C17.5388 28.3939 17.2245 28.3054 16.8687 28.3054C16.5129 28.3054 16.1986 28.3939 15.9259 28.5707C15.6531 28.7454 15.439 29.0043 15.2835 29.3473C15.1301 29.6882 15.0534 30.1069 15.0534 30.6034C15.0534 31.0998 15.1301 31.5196 15.2835 31.8626C15.439 32.2035 15.6531 32.4624 15.9259 32.6392C16.1986 32.814 16.5129 32.9013 16.8687 32.9013C17.2245 32.9013 17.5388 32.814 17.8115 32.6392C18.0843 32.4624 18.2973 32.2035 18.4507 31.8626C18.6063 31.5196 18.684 31.0998 18.684 30.6034ZM26.5998 29.5391H25.4045C25.3704 29.3431 25.3075 29.1694 25.2159 29.0181C25.1243 28.8647 25.0103 28.7348 24.8739 28.6282C24.7376 28.5217 24.582 28.4418 24.4073 28.3885C24.2347 28.3331 24.0483 28.3054 23.848 28.3054C23.4922 28.3054 23.1768 28.3949 22.902 28.5739C22.6271 28.7507 22.4119 29.0107 22.2564 29.3537C22.1009 29.6946 22.0231 30.1112 22.0231 30.6034C22.0231 31.1041 22.1009 31.526 22.2564 31.869C22.4141 32.2099 22.6293 32.4677 22.902 32.6424C23.1768 32.815 23.4911 32.9013 23.8448 32.9013C24.0408 32.9013 24.2241 32.8757 24.3945 32.8246C24.5671 32.7713 24.7216 32.6936 24.858 32.5913C24.9964 32.489 25.1126 32.3633 25.2063 32.2142C25.3022 32.065 25.3683 31.8946 25.4045 31.7028L26.5998 31.7092C26.555 32.0203 26.4581 32.3122 26.3089 32.5849C26.1619 32.8576 25.9691 33.0984 25.7305 33.3072C25.4918 33.5139 25.2127 33.6758 24.8931 33.793C24.5735 33.9081 24.2188 33.9656 23.8288 33.9656C23.2536 33.9656 22.7401 33.8324 22.2884 33.5661C21.8366 33.2997 21.4808 32.9152 21.2209 32.4123C20.9609 31.9095 20.831 31.3065 20.831 30.6034C20.831 29.8981 20.962 29.2951 21.2241 28.7944C21.4862 28.2916 21.843 27.907 22.2947 27.6407C22.7464 27.3743 23.2578 27.2412 23.8288 27.2412C24.1932 27.2412 24.532 27.2923 24.8452 27.3946C25.1584 27.4968 25.4375 27.6471 25.6825 27.8452C25.9276 28.0412 26.1289 28.282 26.2866 28.5675C26.4464 28.8509 26.5508 29.1747 26.5998 29.5391ZM28.5621 27.3306L30.0036 29.7277H30.0547L31.5025 27.3306H32.8544L30.8377 30.6034L32.8864 33.8761H31.5121L30.0547 31.4951H30.0036L28.5462 33.8761H27.1783L29.2461 30.6034L27.2038 27.3306H28.5621Z" fill="white"/>
</g>
<defs>
<filter id="filter0_d_3578_347" x="23.3367" y="-0.123901" width="12.6631" height="11.9572" filterUnits="userSpaceOnUse" color-interpolation-filters="sRGB">
<feFlood flood-opacity="0" result="BackgroundImageFix"/>
<feColorMatrix in="SourceAlpha" type="matrix" values="0 0 0 0 0 0 0 0 0 0 0 0 0 0 0 0 0 0 127 0" result="hardAlpha"/>
<feOffset dx="-1" dy="1"/>
<feGaussianBlur stdDeviation="1"/>
<feComposite in2="hardAlpha" operator="out"/>
<feColorMatrix type="matrix" values="0 0 0 0 0 0 0 0 0 0 0 0 0 0 0 0 0 0 0.2 0"/>
<feBlend mode="normal" in2="BackgroundImageFix" result="effect1_dropShadow_3578_347"/>
<feBlend mode="normal" in="SourceGraphic" in2="effect1_dropShadow_3578_347" result="shape"/>
</filter>
<clipPath id="clip0_3578_347">
<rect width="40" height="40" fill="white" transform="translate(0 0.876099)"/>
</clipPath>
</defs>
</svg>
