<svg width="40" height="41" viewBox="0 0 40 41" fill="none" xmlns="http://www.w3.org/2000/svg">
<g clip-path="url(#clip0_3578_348)">
<path d="M34.9998 8.83329V36.8761C34.9998 39.0852 33.209 40.8761 30.9998 40.8761H9C6.79086 40.8761 5 39.0852 5 36.8761V4.8761C5 2.66696 6.79086 0.876099 9 0.876099H26.3367L34.9998 8.83329Z" fill="#E72A2A"/>
<g filter="url(#filter0_d_3578_348)">
<path d="M34.9998 8.83329H27.3367C26.7844 8.83329 26.3367 8.38557 26.3367 7.83329V0.876099L34.9998 8.83329Z" fill="#FECDCA"/>
</g>
<path d="M10.8323 34.8761V27.6034H13.7016C14.2532 27.6034 14.7232 27.7087 15.1114 27.9194C15.4997 28.1278 15.7956 28.4178 15.9992 28.7895C16.2052 29.1588 16.3082 29.5849 16.3082 30.0679C16.3082 30.5508 16.204 30.977 15.9957 31.3463C15.7873 31.7156 15.4855 32.0032 15.0901 32.2092C14.6971 32.4152 14.2213 32.5181 13.6626 32.5181H11.8337V31.2859H13.414C13.7099 31.2859 13.9537 31.235 14.1455 31.1332C14.3396 31.029 14.484 30.8858 14.5787 30.7035C14.6758 30.5189 14.7243 30.307 14.7243 30.0679C14.7243 29.8264 14.6758 29.6157 14.5787 29.4358C14.484 29.2535 14.3396 29.1126 14.1455 29.0132C13.9514 28.9114 13.7052 28.8605 13.4069 28.8605H12.3699V34.8761H10.8323ZM19.885 34.8761H17.3069V27.6034H19.9063C20.6379 27.6034 21.2676 27.749 21.7955 28.0402C22.3235 28.329 22.7295 28.7445 23.0136 29.2866C23.3 29.8288 23.4433 30.4774 23.4433 31.2326C23.4433 31.9902 23.3 32.6412 23.0136 33.1858C22.7295 33.7303 22.3211 34.1481 21.7884 34.4393C21.2581 34.7305 20.6237 34.8761 19.885 34.8761ZM18.8445 33.5586H19.8211C20.2757 33.5586 20.658 33.4781 20.9681 33.3171C21.2806 33.1538 21.515 32.9017 21.6713 32.5608C21.8299 32.2175 21.9092 31.7748 21.9092 31.2326C21.9092 30.6952 21.8299 30.2561 21.6713 29.9152C21.515 29.5743 21.2818 29.3233 20.9717 29.1623C20.6615 29.0013 20.2792 28.9208 19.8247 28.9208H18.8445V33.5586ZM24.5823 34.8761V27.6034H29.3976V28.8711H26.1199V30.6041H29.078V31.8718H26.1199V34.8761H24.5823Z" fill="white"/>
</g>
<defs>
<filter id="filter0_d_3578_348" x="23.3367" y="-0.123901" width="12.6631" height="11.9572" filterUnits="userSpaceOnUse" color-interpolation-filters="sRGB">
<feFlood flood-opacity="0" result="BackgroundImageFix"/>
<feColorMatrix in="SourceAlpha" type="matrix" values="0 0 0 0 0 0 0 0 0 0 0 0 0 0 0 0 0 0 127 0" result="hardAlpha"/>
<feOffset dx="-1" dy="1"/>
<feGaussianBlur stdDeviation="1"/>
<feComposite in2="hardAlpha" operator="out"/>
<feColorMatrix type="matrix" values="0 0 0 0 0 0 0 0 0 0 0 0 0 0 0 0 0 0 0.2 0"/>
<feBlend mode="normal" in2="BackgroundImageFix" result="effect1_dropShadow_3578_348"/>
<feBlend mode="normal" in="SourceGraphic" in2="effect1_dropShadow_3578_348" result="shape"/>
</filter>
<clipPath id="clip0_3578_348">
<rect width="40" height="40" fill="white" transform="translate(0 0.876099)"/>
</clipPath>
</defs>
</svg>
