<svg width="40" height="41" viewBox="0 0 40 41" fill="none" xmlns="http://www.w3.org/2000/svg">
<g clip-path="url(#clip0_3578_341)">
<path d="M34.9998 8.83329V36.8761C34.9998 39.0852 33.209 40.8761 30.9998 40.8761H9C6.79086 40.8761 5 39.0852 5 36.8761V4.8761C5 2.66696 6.79086 0.876099 9 0.876099H26.3367L34.9998 8.83329Z" fill="#E24B25"/>
<g filter="url(#filter0_d_3578_341)">
<path d="M34.9998 8.83329H27.3367C26.7844 8.83329 26.3367 8.38557 26.3367 7.83329V0.876099L34.9998 8.83329Z" fill="#FECDCA"/>
</g>
<path d="M10.8176 34.8761V27.6034H13.687C14.2386 27.6034 14.7085 27.7087 15.0968 27.9194C15.485 28.1278 15.781 28.4178 15.9846 28.7895C16.1905 29.1588 16.2935 29.5849 16.2935 30.0679C16.2935 30.5508 16.1893 30.977 15.981 31.3463C15.7727 31.7156 15.4708 32.0032 15.0755 32.2092C14.6825 32.4152 14.2066 32.5181 13.6479 32.5181H11.8191V31.2859H13.3993C13.6953 31.2859 13.9391 31.235 14.1309 31.1332C14.325 31.029 14.4694 30.8858 14.5641 30.7035C14.6612 30.5189 14.7097 30.307 14.7097 30.0679C14.7097 29.8264 14.6612 29.6157 14.5641 29.4358C14.4694 29.2535 14.325 29.1126 14.1309 29.0132C13.9367 28.9114 13.6905 28.8605 13.3922 28.8605H12.3553V34.8761H10.8176ZM17.2923 34.8761V27.6034H20.1616C20.7132 27.6034 21.1831 27.7087 21.5714 27.9194C21.9596 28.1278 22.2556 28.4178 22.4592 28.7895C22.6651 29.1588 22.7681 29.5849 22.7681 30.0679C22.7681 30.5508 22.6639 30.977 22.4556 31.3463C22.2473 31.7156 21.9454 32.0032 21.5501 32.2092C21.1571 32.4152 20.6812 32.5181 20.1225 32.5181H18.2937V31.2859H19.8739C20.1699 31.2859 20.4137 31.235 20.6055 31.1332C20.7996 31.029 20.944 30.8858 21.0387 30.7035C21.1358 30.5189 21.1843 30.307 21.1843 30.0679C21.1843 29.8264 21.1358 29.6157 21.0387 29.4358C20.944 29.2535 20.7996 29.1126 20.6055 29.0132C20.4113 28.9114 20.1651 28.8605 19.8668 28.8605H18.8299V34.8761H17.2923ZM23.4899 28.8711V27.6034H29.4629V28.8711H27.2363V34.8761H25.7164V28.8711H23.4899Z" fill="white"/>
</g>
<defs>
<filter id="filter0_d_3578_341" x="23.3367" y="-0.123901" width="12.6631" height="11.9572" filterUnits="userSpaceOnUse" color-interpolation-filters="sRGB">
<feFlood flood-opacity="0" result="BackgroundImageFix"/>
<feColorMatrix in="SourceAlpha" type="matrix" values="0 0 0 0 0 0 0 0 0 0 0 0 0 0 0 0 0 0 127 0" result="hardAlpha"/>
<feOffset dx="-1" dy="1"/>
<feGaussianBlur stdDeviation="1"/>
<feComposite in2="hardAlpha" operator="out"/>
<feColorMatrix type="matrix" values="0 0 0 0 0 0 0 0 0 0 0 0 0 0 0 0 0 0 0.2 0"/>
<feBlend mode="normal" in2="BackgroundImageFix" result="effect1_dropShadow_3578_341"/>
<feBlend mode="normal" in="SourceGraphic" in2="effect1_dropShadow_3578_341" result="shape"/>
</filter>
<clipPath id="clip0_3578_341">
<rect width="40" height="40" fill="white" transform="translate(0 0.876099)"/>
</clipPath>
</defs>
</svg>
