<svg width="40" height="41" viewBox="0 0 40 41" fill="none" xmlns="http://www.w3.org/2000/svg">
<g clip-path="url(#clip0_3578_340)">
<path d="M34.9998 8.83329V36.8761C34.9998 39.0852 33.209 40.8761 30.9998 40.8761H9C6.79086 40.8761 5 39.0852 5 36.8761V4.8761C5 2.66696 6.79086 0.876099 9 0.876099H26.3367L34.9998 8.83329Z" fill="#E24B25"/>
<g filter="url(#filter0_d_3578_340)">
<path d="M34.9998 8.83329H27.3367C26.7844 8.83329 26.3367 8.38557 26.3367 7.83329V0.876099L34.9998 8.83329Z" fill="#FECDCA"/>
</g>
<path d="M8.51909 33.8761V27.3306H11.1015C11.5979 27.3306 12.0209 27.4255 12.3703 27.6151C12.7197 27.8026 12.9861 28.0636 13.1693 28.3981C13.3547 28.7305 13.4474 29.114 13.4474 29.5487C13.4474 29.9833 13.3536 30.3669 13.1661 30.6993C12.9786 31.0316 12.7069 31.2905 12.3511 31.4759C11.9974 31.6613 11.5692 31.7539 11.0663 31.7539H9.42037V30.6449H10.8426C11.1089 30.6449 11.3284 30.5991 11.501 30.5075C11.6757 30.4137 11.8057 30.2848 11.8909 30.1208C11.9782 29.9546 12.0219 29.7639 12.0219 29.5487C12.0219 29.3314 11.9782 29.1417 11.8909 28.9798C11.8057 28.8157 11.6757 28.689 11.501 28.5995C11.3263 28.5078 11.1047 28.462 10.8362 28.462H9.90297V33.8761H8.51909ZM14.3462 33.8761V27.3306H16.9286C17.4251 27.3306 17.848 27.4255 18.1974 27.6151C18.5469 27.8026 18.8132 28.0636 18.9964 28.3981C19.1818 28.7305 19.2745 29.114 19.2745 29.5487C19.2745 29.9833 19.1808 30.3669 18.9933 30.6993C18.8058 31.0316 18.5341 31.2905 18.1783 31.4759C17.8246 31.6613 17.3963 31.7539 16.8935 31.7539H15.2475V30.6449H16.6697C16.9361 30.6449 17.1555 30.5991 17.3281 30.5075C17.5028 30.4137 17.6328 30.2848 17.718 30.1208C17.8054 29.9546 17.8491 29.7639 17.8491 29.5487C17.8491 29.3314 17.8054 29.1417 17.718 28.9798C17.6328 28.8157 17.5028 28.689 17.3281 28.5995C17.1534 28.5078 16.9318 28.462 16.6634 28.462H15.7301V33.8761H14.3462ZM19.9241 28.4716V27.3306H25.2998V28.4716H23.2959V33.8761H21.928V28.4716H19.9241ZM27.4827 27.3306L28.8026 29.5615H28.8538L30.1801 27.3306H31.743L29.7455 30.6034L31.7877 33.8761H30.1961L28.8538 31.6421H28.8026L27.4603 33.8761H25.8751L27.9237 30.6034L25.9134 27.3306H27.4827Z" fill="white"/>
</g>
<defs>
<filter id="filter0_d_3578_340" x="23.3367" y="-0.123901" width="12.6631" height="11.9572" filterUnits="userSpaceOnUse" color-interpolation-filters="sRGB">
<feFlood flood-opacity="0" result="BackgroundImageFix"/>
<feColorMatrix in="SourceAlpha" type="matrix" values="0 0 0 0 0 0 0 0 0 0 0 0 0 0 0 0 0 0 127 0" result="hardAlpha"/>
<feOffset dx="-1" dy="1"/>
<feGaussianBlur stdDeviation="1"/>
<feComposite in2="hardAlpha" operator="out"/>
<feColorMatrix type="matrix" values="0 0 0 0 0 0 0 0 0 0 0 0 0 0 0 0 0 0 0.2 0"/>
<feBlend mode="normal" in2="BackgroundImageFix" result="effect1_dropShadow_3578_340"/>
<feBlend mode="normal" in="SourceGraphic" in2="effect1_dropShadow_3578_340" result="shape"/>
</filter>
<clipPath id="clip0_3578_340">
<rect width="40" height="40" fill="white" transform="translate(0 0.876099)"/>
</clipPath>
</defs>
</svg>
