<svg width="40" height="41" viewBox="0 0 40 41" fill="none" xmlns="http://www.w3.org/2000/svg">
<g clip-path="url(#clip0_3578_346)">
<path d="M34.9998 8.83329V36.8761C34.9998 39.0852 33.209 40.8761 30.9998 40.8761H9C6.79086 40.8761 5 39.0852 5 36.8761V4.8761C5 2.66696 6.79086 0.876099 9 0.876099H26.3367L34.9998 8.83329Z" fill="#344054"/>
<g filter="url(#filter0_d_3578_346)">
<path d="M34.9998 8.83329H27.3367C26.7844 8.83329 26.3367 8.38557 26.3367 7.83329V0.876099L34.9998 8.83329Z" fill="#E4E7EC"/>
</g>
<path d="M10.1012 28.8711V27.6034H16.0742V28.8711H13.8477V34.8761H12.3278V28.8711H10.1012ZM18.4996 27.6034L19.9663 30.0821H20.0231L21.4968 27.6034H23.2333L21.0138 31.2397L23.283 34.8761H21.5146L20.0231 32.3939H19.9663L18.4748 34.8761H16.7134L18.9897 31.2397L16.756 27.6034H18.4996ZM23.9293 28.8711V27.6034H29.9023V28.8711H27.6758V34.8761H26.1559V28.8711H23.9293Z" fill="white"/>
</g>
<defs>
<filter id="filter0_d_3578_346" x="23.3367" y="-0.123901" width="12.6631" height="11.9572" filterUnits="userSpaceOnUse" color-interpolation-filters="sRGB">
<feFlood flood-opacity="0" result="BackgroundImageFix"/>
<feColorMatrix in="SourceAlpha" type="matrix" values="0 0 0 0 0 0 0 0 0 0 0 0 0 0 0 0 0 0 127 0" result="hardAlpha"/>
<feOffset dx="-1" dy="1"/>
<feGaussianBlur stdDeviation="1"/>
<feComposite in2="hardAlpha" operator="out"/>
<feColorMatrix type="matrix" values="0 0 0 0 0 0 0 0 0 0 0 0 0 0 0 0 0 0 0.2 0"/>
<feBlend mode="normal" in2="BackgroundImageFix" result="effect1_dropShadow_3578_346"/>
<feBlend mode="normal" in="SourceGraphic" in2="effect1_dropShadow_3578_346" result="shape"/>
</filter>
<clipPath id="clip0_3578_346">
<rect width="40" height="40" fill="white" transform="translate(0 0.876099)"/>
</clipPath>
</defs>
</svg>
