<svg width="40" height="41" viewBox="0 0 40 41" fill="none" xmlns="http://www.w3.org/2000/svg">
<g clip-path="url(#clip0_3578_343)">
<path d="M34.9998 8.83329V36.8761C34.9998 39.0852 33.209 40.8761 30.9998 40.8761H9C6.79086 40.8761 5 39.0852 5 36.8761V4.8761C5 2.66696 6.79086 0.876099 9 0.876099H26.3367L34.9998 8.83329Z" fill="#25953A"/>
<g filter="url(#filter0_d_3578_343)">
<path d="M34.9998 8.83329H27.3367C26.7844 8.83329 26.3367 8.38557 26.3367 7.83329V0.876099L34.9998 8.83329Z" fill="#ABEFC6"/>
</g>
<path d="M12.3864 27.6034L13.853 30.0821H13.9098L15.3835 27.6034H17.12L14.9006 31.2397L17.1697 34.8761H15.4013L13.9098 32.3939H13.853L12.3615 34.8761H10.6001L12.8764 31.2397L10.6428 27.6034H12.3864ZM18.093 34.8761V27.6034H19.6307V33.6083H22.7486V34.8761H18.093ZM27.7122 29.695C27.6838 29.4085 27.5618 29.186 27.3464 29.0274C27.131 28.8688 26.8386 28.7895 26.4693 28.7895C26.2183 28.7895 26.0065 28.825 25.8336 28.896C25.6608 28.9646 25.5282 29.0605 25.4359 29.1836C25.3459 29.3067 25.301 29.4464 25.301 29.6027C25.2962 29.7329 25.3234 29.8465 25.3826 29.9436C25.4442 30.0406 25.5282 30.1247 25.6348 30.1957C25.7413 30.2644 25.8644 30.3247 26.0041 30.3768C26.1438 30.4265 26.2929 30.4691 26.4515 30.5046L27.1049 30.6609C27.4222 30.7319 27.7134 30.8266 27.9785 30.945C28.2437 31.0634 28.4733 31.209 28.6674 31.3818C28.8616 31.5546 29.0119 31.7582 29.1184 31.9926C29.2273 32.227 29.283 32.4957 29.2853 32.7987C29.283 33.2438 29.1693 33.6296 28.9444 33.9564C28.7219 34.2807 28.3999 34.5328 27.9785 34.7127C27.5595 34.8903 27.054 34.9791 26.4622 34.9791C25.8751 34.9791 25.3637 34.8891 24.9281 34.7092C24.4949 34.5293 24.1563 34.2629 23.9125 33.9102C23.671 33.5551 23.5443 33.1159 23.5325 32.5927H25.0204C25.037 32.8366 25.1068 33.0402 25.2299 33.2035C25.3554 33.3645 25.5223 33.4864 25.7306 33.5693C25.9413 33.6498 26.1793 33.69 26.4444 33.69C26.7048 33.69 26.9309 33.6521 27.1227 33.5764C27.3168 33.5006 27.4672 33.3953 27.5737 33.2603C27.6802 33.1254 27.7335 32.9703 27.7335 32.7951C27.7335 32.6318 27.685 32.4945 27.5879 32.3832C27.4932 32.2719 27.3535 32.1772 27.1689 32.0991C26.9866 32.021 26.7628 31.95 26.4977 31.886L25.7058 31.6872C25.0926 31.538 24.6085 31.3048 24.2534 30.9876C23.8983 30.6704 23.7219 30.243 23.7243 29.7056C23.7219 29.2653 23.8391 28.8806 24.0758 28.5515C24.3149 28.2225 24.6428 27.9656 25.0595 27.7809C25.4761 27.5963 25.9496 27.5039 26.4799 27.5039C27.0197 27.5039 27.4908 27.5963 27.8933 27.7809C28.2981 27.9656 28.613 28.2225 28.8379 28.5515C29.0628 28.8806 29.1788 29.2618 29.1859 29.695H27.7122Z" fill="white"/>
</g>
<defs>
<filter id="filter0_d_3578_343" x="23.3367" y="-0.123901" width="12.6631" height="11.9572" filterUnits="userSpaceOnUse" color-interpolation-filters="sRGB">
<feFlood flood-opacity="0" result="BackgroundImageFix"/>
<feColorMatrix in="SourceAlpha" type="matrix" values="0 0 0 0 0 0 0 0 0 0 0 0 0 0 0 0 0 0 127 0" result="hardAlpha"/>
<feOffset dx="-1" dy="1"/>
<feGaussianBlur stdDeviation="1"/>
<feComposite in2="hardAlpha" operator="out"/>
<feColorMatrix type="matrix" values="0 0 0 0 0 0 0 0 0 0 0 0 0 0 0 0 0 0 0.2 0"/>
<feBlend mode="normal" in2="BackgroundImageFix" result="effect1_dropShadow_3578_343"/>
<feBlend mode="normal" in="SourceGraphic" in2="effect1_dropShadow_3578_343" result="shape"/>
</filter>
<clipPath id="clip0_3578_343">
<rect width="40" height="40" fill="white" transform="translate(0 0.876099)"/>
</clipPath>
</defs>
</svg>
