<svg width="40" height="41" viewBox="0 0 40 41" fill="none" xmlns="http://www.w3.org/2000/svg">
<g clip-path="url(#clip0_3578_342)">
<path d="M34.9998 8.83329V36.8761C34.9998 39.0852 33.209 40.8761 30.9998 40.8761H9C6.79086 40.8761 5 39.0852 5 36.8761V4.8761C5 2.66696 6.79086 0.876099 9 0.876099H26.3367L34.9998 8.83329Z" fill="#25943A"/>
<path d="M9.93093 27.3306L11.2509 29.5615H11.302L12.6284 27.3306H14.1912L12.1937 30.6034L14.236 33.8761H12.6444L11.302 31.6421H11.2509L9.90856 33.8761H8.32333L10.372 30.6034L8.36168 27.3306H9.93093ZM15.0669 33.8761V27.3306H16.4508V32.7351H19.2569V33.8761H15.0669ZM23.7242 29.2131C23.6986 28.9553 23.5889 28.755 23.395 28.6122C23.2011 28.4695 22.9379 28.3981 22.6056 28.3981C22.3797 28.3981 22.189 28.4301 22.0335 28.494C21.8779 28.5558 21.7586 28.6421 21.6755 28.7529C21.5945 28.8637 21.5541 28.9894 21.5541 29.13C21.5498 29.2472 21.5743 29.3495 21.6276 29.4368C21.683 29.5242 21.7586 29.5998 21.8545 29.6637C21.9504 29.7255 22.0612 29.7799 22.1869 29.8267C22.3126 29.8715 22.4468 29.9098 22.5896 29.9418L23.1776 30.0824C23.4632 30.1463 23.7252 30.2316 23.9639 30.3381C24.2025 30.4446 24.4092 30.5757 24.5839 30.7312C24.7586 30.8868 24.8939 31.07 24.9898 31.2809C25.0878 31.4919 25.1379 31.7337 25.14 32.0064C25.1379 32.407 25.0356 32.7543 24.8332 33.0483C24.6329 33.3402 24.3431 33.5671 23.9639 33.7291C23.5867 33.8889 23.1318 33.9688 22.5992 33.9688C22.0708 33.9688 21.6105 33.8878 21.2185 33.7259C20.8286 33.564 20.5239 33.3243 20.3044 33.0068C20.0871 32.6872 19.9731 32.2919 19.9624 31.8211H21.3016C21.3165 32.0405 21.3794 32.2238 21.4901 32.3708C21.6031 32.5157 21.7533 32.6254 21.9408 32.7C22.1304 32.7724 22.3445 32.8086 22.5832 32.8086C22.8176 32.8086 23.021 32.7745 23.1936 32.7064C23.3683 32.6382 23.5036 32.5434 23.5995 32.4219C23.6954 32.3005 23.7433 32.1609 23.7433 32.0032C23.7433 31.8562 23.6997 31.7326 23.6123 31.6325C23.5271 31.5323 23.4014 31.4471 23.2352 31.3768C23.0711 31.3065 22.8698 31.2426 22.6311 31.185L21.9184 31.0061C21.3666 30.8718 20.9308 30.662 20.6112 30.3765C20.2916 30.0909 20.1329 29.7064 20.135 29.2227C20.1329 28.8264 20.2384 28.4801 20.4514 28.184C20.6666 27.8878 20.9617 27.6566 21.3367 27.4904C21.7117 27.3243 22.1379 27.2412 22.6151 27.2412C23.1009 27.2412 23.5249 27.3243 23.8872 27.4904C24.2515 27.6566 24.5349 27.8878 24.7373 28.184C24.9397 28.4801 25.0441 28.8232 25.0505 29.2131H23.7242ZM27.3684 27.3306L28.6884 29.5615H28.7395L30.0659 27.3306H31.6287L29.6312 30.6034L31.6735 33.8761H30.0819L28.7395 31.6421H28.6884L27.3461 33.8761H25.7608L27.8095 30.6034L25.7992 27.3306H27.3684Z" fill="white"/>
<g filter="url(#filter0_d_3578_342)">
<path d="M34.9998 8.83329H27.3367C26.7844 8.83329 26.3367 8.38557 26.3367 7.83329V0.876099L34.9998 8.83329Z" fill="#ABEFC6"/>
</g>
</g>
<defs>
<filter id="filter0_d_3578_342" x="23.3367" y="-0.123901" width="12.6631" height="11.9572" filterUnits="userSpaceOnUse" color-interpolation-filters="sRGB">
<feFlood flood-opacity="0" result="BackgroundImageFix"/>
<feColorMatrix in="SourceAlpha" type="matrix" values="0 0 0 0 0 0 0 0 0 0 0 0 0 0 0 0 0 0 127 0" result="hardAlpha"/>
<feOffset dx="-1" dy="1"/>
<feGaussianBlur stdDeviation="1"/>
<feComposite in2="hardAlpha" operator="out"/>
<feColorMatrix type="matrix" values="0 0 0 0 0 0 0 0 0 0 0 0 0 0 0 0 0 0 0.2 0"/>
<feBlend mode="normal" in2="BackgroundImageFix" result="effect1_dropShadow_3578_342"/>
<feBlend mode="normal" in="SourceGraphic" in2="effect1_dropShadow_3578_342" result="shape"/>
</filter>
<clipPath id="clip0_3578_342">
<rect width="40" height="40" fill="white" transform="translate(0 0.876099)"/>
</clipPath>
</defs>
</svg>
